<svg xmlns="http://www.w3.org/2000/svg" width="960" height="438.656" viewBox="0 0 960 438.656" xmlns:xlink="http://www.w3.org/1999/xlink" role="img" artist="Katerina Limpitsouni" source="https://undraw.co/"><g transform="translate(-375.426 -236.395)"><path d="M518.443,608.668s-43.742,18.854-54.3,13.575-42.233-18.854-52.037,9.05c-7.906,22.5,38.249,23.916,56.412,23.62a15.177,15.177,0,0,0,11.462-5.52h0L542.953,627.9S529,604.143,518.443,608.668Z" transform="translate(285.722 -42.659)" fill="#ed9da0"/><path d="M.738,105.582c4.246-1.7,10.886-16.554,15.876-29.207A49.02,49.02,0,1,1,70.971,96.107a41.433,41.433,0,0,0-.1,10.985l15.083.753-1.506,36.2L45.985,162.9S-6.806,108.6.738,105.582Z" transform="translate(882.614 297.476)" fill="#ed9da0"/><path d="M99.548,221.726s-2.485-34.791-7.05-53.938c-1.938,3.514-3.1,6.39-2.375,8.309a11.472,11.472,0,0,1-.108,6.082,30.553,30.553,0,0,1-18.347,21.467c-17.51,7.221-48.105,19.1-43.765,12.047C33.935,205.888,0,191.558,0,184.017S53.544,171.2,49.021,163.655s4.524-22.624,3.015-36.953,12.445-65.991,11.69-85.6c-.417-10.849,7.249-17.081,14.181-20.483,4.153-2.862,20.372-6.19,26.922-5.533C112.369,15.838,136.5,0,136.5,0c1.506,18.1,33.936,39.971,33.936,39.971l31.578-26.325s13.673-3.087,19.705-2.332,15.838,6.785,24.136,5.277,16.59,4.526,16.59,4.526,0,.106-.012.314c3.465-.809,12.068-1.579,16.226,9.114,5.279,13.574,9.727,27.249,12.271,68.447s-3.6,94.074-2.09,96.336-2.262,16.594-5.28,16.594H251.88s3.794-16.405-7.794-25.655c2.857,18.881,12.329,35.458,12.329,35.458Z" transform="translate(752.882 390.443)" fill="#E93F3F"/><path d="M864.449,662.364v33.184a22.2,22.2,0,0,1-21.923,22.2l-698.22,8.62A12.749,12.749,0,0,1,131.4,713.616V676.934A12.637,12.637,0,0,1,143.646,664.3l700.5-21.62a19.691,19.691,0,0,1,20.3,19.682Z" transform="translate(354.507 -51.313)" fill="#e6e6e6"/><path d="M864.449,700.855v9a22.2,22.2,0,0,1-21.923,22.2l-698.22,8.62A12.749,12.749,0,0,1,131.4,727.919v-1.181Z" transform="translate(354.507 -65.616)" fill="#d6d6e3"/><path d="M744.8,520.264,656.453,508.8l-157.09,5.731,56.892,17.8Z" transform="translate(336.902 91.596)" fill="#fff"/><path d="M462.42,514.788v9.05l-85.975,19.608-8.4-1.938-1.4-.324L304.8,508Z" transform="translate(384.733 91.793)" fill="#090814"/><path d="M482.578,517v9.05L396.6,545.658l-8.4-1.938-1.4-9.374Z" transform="translate(364.574 89.581)" fill="#fff" opacity="0.223"/><path d="M471.533,677.922c1.508-.754,33.183-6.788,33.183-6.788L447.4,665.855Z" transform="translate(276.823 -57.012)" fill="#090814"/><path d="M701.282,562.855l5.279,4.525L657.54,636.763s-7.542.754-5.279-3.017Z" transform="translate(226.565 -31.506)" fill="#090814"/><path d="M103.915,503.016,302.822,504.9a7.233,7.233,0,0,1,6.511,4.229l53.605,117.45a7.232,7.232,0,0,1-6.83,10.231L156.5,629.9a7.233,7.233,0,0,1-6.294-4.149L97.3,513.327a7.232,7.232,0,0,1,6.613-10.312Z" transform="translate(392.914 -2.018)" fill="#090814"/><path d="M764.443,608.726S720.7,627.58,710.143,622.3s-42.233-18.854-52.037,9.05c-7.906,22.5,38.249,23.916,56.412,23.62a15.177,15.177,0,0,0,11.462-5.52h0l57.574-9.471S775,604.2,764.443,608.726Z" transform="translate(225.246 -42.717)" fill="#ed9da0"/><path d="M781.643,392.374s41.856,6.019,44.119,9.036-2.262,21.117-2.262,21.117l-30.167,5.279L770.12,422.8Z" transform="translate(197.488 10.78)" fill="#E93F3F"/><path d="M846.1,496.039l72.957,29.182,45.6-8.208-3.977-32.639-.584-4.751-76.6-23.711-5.472,5.471Z" transform="translate(251.662 104.598)" fill="#E93F3F"/><path d="M901.724,463.616V495.2l76.6,23.711-3.977-32.639Z" transform="translate(237.988 102.704)" opacity="0.1"/><g transform="translate(1068.532 561.723)"><path d="M904.6,649.109l5.164,1.912,61.574,22.8,4.785,1.772a1.008,1.008,0,0,0,.918-.108l5.639-3.781,58.657-39.353,5.542-3.716a1.018,1.018,0,0,0-.27-1.82l-8.836-2.706-62.114-19.029-5.423-1.664a1.014,1.014,0,0,0-.87.129l-4.272,2.879L909.757,643.7l-5.363,3.613a1.018,1.018,0,0,0,.21,1.8Z" transform="translate(-903.943 -603.375)" fill="#d6d6e3"/><path d="M1045.185,635.98l-59.623,40.55a2.2,2.2,0,0,1-1.987.247l-63.3-23.108a2.214,2.214,0,0,1-.447-3.931l57.709-37.66a2.195,2.195,0,0,1,1.849-.259l65.211,20.218a2.214,2.214,0,0,1,.585,3.942Z" transform="translate(-910.795 -608.813)" fill="#fff"/></g><path d="M482.253,35.567c1.347.784,3.519-5.008,3.037-6.5-.841-2.494-.82-18.417-10.053-22.238C469.4.765,460.115-.786,451.773.34c-10.717,1.448-21.293,7.238-26.28,16.849s-2.854,23,6.151,29C418.8,60.9,414.332,77.308,415.036,96.815c.7,19.524,21.977,37.479,35.85,51.233,3.1-1.87,5.912-10.676,4.206-13.873s.744-6.9-1.367-9.852c-2.111-2.936-3.881,1.75-1.75-1.186,1.347-1.85-3.9-6.092-1.912-7.2,9.672-5.348,12.889-17.412,18.964-26.641a45.369,45.369,0,0,1,33.156-19.926c7.318-.684,15.039.563,21.028,4.805s11.375,11.222,9.99,18.44c3.669-3.718,3.91-8.323,3.222-13.5a16.908,16.908,0,0,0-8.242-12.379A27.6,27.6,0,0,0,522.312,40.7c-6.253-6.9-31.608-5.711-40.737-3.9l.7-1.207-.02-.02Z" transform="translate(449.192 236.395)" fill="#090814"/><path d="M467.013,34.628c-12.082,1.307-20.811,11.783-28.19,21.454-4.242,5.57-8.707,11.722-8.586,18.74.1,7.078,4.846,13.17,7.118,19.865a29.947,29.947,0,0,1-8.707,31.547c8.707,1.649,18.117-4.866,19.6-13.611,1.75-10.154-5.951-19.966-5.047-30.24.8-9.048,7.942-16.005,13.993-22.781,6.072-6.776,11.762-15.744,8.967-24.393l.841-.583h0Z" transform="translate(463.021 271.395)" fill="#090814"/><path d="M51.061,15.385a95.518,95.518,0,0,1-24.109-3.307A90.823,90.823,0,0,1,0,.33L.221,0A90.431,90.431,0,0,0,27.053,11.692,93.009,93.009,0,0,0,53.7,14.941l.014.4Q52.4,15.385,51.061,15.385Z" transform="translate(1184.774 553.438) rotate(-83)" fill="#090814"/><g transform="translate(1077.755 424.636)"><rect width="257.67" height="64.174" rx="16" fill="#090814"/><rect width="251.836" height="58.34" rx="15" transform="translate(2.917 2.917)" fill="#fff"/><path d="M300.634,369.083a2.072,2.072,0,0,1-1.658-.834l-5.084-6.775a2.072,2.072,0,1,1,3.315-2.487l3.328,4.433,8.539-12.809a2.072,2.072,0,1,1,3.449,2.3l-10.164,15.25a2.074,2.074,0,0,1-1.664.926Z" transform="translate(-70.873 -327.456)" fill="#E93F3F"/><g transform="translate(203.217 12.542)"><path d="M7.756,0H31.024A7.756,7.756,0,0,1,38.78,7.756V31.024a7.756,7.756,0,0,1-7.756,7.756H7.756A7.756,7.756,0,0,1,0,31.024V7.756A7.756,7.756,0,0,1,7.756,0Z" transform="translate(0 0)" fill="#E93F3F"/><path d="M12.248-73.526v-2.512a7.643,7.643,0,0,1-4.8-1.8,5.992,5.992,0,0,1-1.883-4.442H8.97a3.011,3.011,0,0,0,1.018,2.188,4.208,4.208,0,0,0,2.263.94v-6l-1.038-.287a8.425,8.425,0,0,1-3.765-1.971A4.629,4.629,0,0,1,6.1-90.881a5.44,5.44,0,0,1,.8-2.941,5.9,5.9,0,0,1,2.185-2.051,7.929,7.929,0,0,1,3.169-.94V-99.38H13.8v2.556a7.65,7.65,0,0,1,3.265.9,5.89,5.89,0,0,1,2.181,2.037,5.54,5.54,0,0,1,.834,2.853h-3.35a2.734,2.734,0,0,0-.895-1.837,3.672,3.672,0,0,0-2.032-.857v5.667l.867.23a12.5,12.5,0,0,1,2.723,1.054,5.99,5.99,0,0,1,2.124,1.847,4.924,4.924,0,0,1,.82,2.922,5.475,5.475,0,0,1-1.715,4.146,7.407,7.407,0,0,1-4.814,1.822v2.515ZM13.8-79.165a3.949,3.949,0,0,0,2.231-.951,2.494,2.494,0,0,0,.848-1.917,1.957,1.957,0,0,0-.841-1.707,7.38,7.38,0,0,0-2.236-.985Zm-1.551-9.308V-93.7a3.4,3.4,0,0,0-1.959.9,2.335,2.335,0,0,0-.7,1.712,1.974,1.974,0,0,0,.82,1.707,6.527,6.527,0,0,0,1.847.918Z" transform="translate(6.439 105.845)" fill="#fff"/></g><path d="M5.184,0H98.512c2.864,0,5.184,2.894,5.184,6.463s-2.322,6.463-5.184,6.463H5.184C2.322,12.927,0,10.033,0,6.463S2.322,0,5.184,0Z" transform="translate(81.97 15.772)" fill="#e6e6e6"/><path d="M5.137,0h51.37c2.837,0,5.139,2.894,5.139,6.463s-2.3,6.463-5.137,6.463H5.137C2.3,12.927,0,10.033,0,6.463S2.3,0,5.137,0Z" transform="translate(81.97 35.164)" fill="#e6e6e6"/><path d="M245.031,621.374a16.158,16.158,0,1,1-4.733-11.5A16.159,16.159,0,0,1,245.031,621.374Z" transform="translate(-187.562 -589.371)" fill="#E93F3F"/></g><g transform="translate(375.426 333.901)"><path d="M418.335,456.6h-104.5a9.257,9.257,0,0,0-9.257,9.257v50.916a9.257,9.257,0,0,0,9.257,9.257h104.5a9.257,9.257,0,0,0,9.257-9.257V465.858a9.257,9.257,0,0,0-9.258-9.258Zm-107.089,6.315a12.775,12.775,0,0,1,14.824,8.919l.164.509-.526.094a13.965,13.965,0,0,1-2.268.166,13.5,13.5,0,0,1-6.884-1.735,14.619,14.619,0,0,1-5.673-7.351l-.164-.508Zm22.685,47.272h-18.64a5.126,5.126,0,0,1,0-10.252h18.639a5.126,5.126,0,1,1,0,10.252Zm84.807-.932a5.608,5.608,0,0,1-5.592,5.592H399.168a5.608,5.608,0,0,1-5.592-5.592v-8.387a5.608,5.608,0,0,1,5.592-5.592h13.98a5.608,5.608,0,0,1,5.592,5.592Z" transform="translate(-304.575 -456.6)" fill="#E93F3F"/><path d="M500.623,561.213H495a1.513,1.513,0,0,0,0,3.027h5.621a1.513,1.513,0,0,0,0-3.027Z" transform="translate(-401.523 -510.285)" fill="#3f3d56"/><path d="M521.938,561.213h-5.621a1.513,1.513,0,1,0,0,3.027h5.621a1.513,1.513,0,1,0,0-3.027Z" transform="translate(-412.461 -510.285)" fill="#3f3d56"/><path d="M500.622,552.438H495a1.513,1.513,0,1,0,0,3.027h5.621a1.513,1.513,0,0,0,0-3.027Z" transform="translate(-401.523 -505.783)" fill="#3f3d56"/><path d="M521.937,552.438h-5.621a1.513,1.513,0,1,0,0,3.027h5.621a1.513,1.513,0,1,0,0-3.027Z" transform="translate(-412.461 -505.783)" fill="#3f3d56"/><path d="M500.622,543.841H495a1.513,1.513,0,1,0,0,3.027h5.621a1.513,1.513,0,1,0,0-3.027Z" transform="translate(-401.523 -501.37)" fill="#3f3d56"/><path d="M521.937,543.841h-5.621a1.513,1.513,0,1,0,0,3.027h5.621a1.513,1.513,0,1,0,0-3.027Z" transform="translate(-412.461 -501.37)" fill="#3f3d56"/><path d="M79.382,0A148.494,148.494,0,0,0,41.9,5.143C26.1,9.326,11.609,15.641,0,23.4l.344.514C11.9,16.192,26.321,9.907,42.058,5.74A144.587,144.587,0,0,1,83.488.691L83.51.073Q81.471,0,79.382,0Z" transform="matrix(-0.616, -0.788, 0.788, -0.616, 112.94, 143.06)" fill="#090814"/></g><path d="M51.061,15.385a95.518,95.518,0,0,1-24.109-3.307A90.823,90.823,0,0,1,0,.33L.221,0A90.431,90.431,0,0,0,27.053,11.692,93.009,93.009,0,0,0,53.7,14.941l.014.4Q52.4,15.385,51.061,15.385Z" transform="translate(623.017 437.758) rotate(-83)" fill="#090814"/><rect width="1.301" height="1.084" transform="translate(583.869 339.559)" fill="#f0f0f0"/><path d="M312.065,540.642h-2.1v-1.084h2.1Zm-4.2,0h-2.1v-1.084h2.1Zm-4.2,0h-2.1v-1.084h2.1Zm-4.2,0h-2.1v-1.084h2.1Zm-4.2,0h-2.1v-1.084h2.1Zm-4.2,0h-2.1v-1.084h2.1Zm-4.2,0h-2.1v-1.084h2.1Zm-4.2,0h-2.1v-1.084h2.1Zm-4.2,0h-2.1v-1.084h2.1Zm-4.2,0h-2.1v-1.084h2.1Zm-4.2,0h-2.1v-1.084h2.1Zm-4.2,0h-2.1v-1.084h2.1Zm-4.2,0h-2.1v-1.084h2.1Zm-4.2,0h-2.1v-1.084h2.1Zm-4.2,0h-2.1v-1.084h2.1Zm-4.2,0h-2.1v-1.084h2.1Zm-4.2,0h-2.1v-1.084h2.1Zm-4.2,0h-2.1v-1.084h2.1Zm-4.2,0h-2.1v-1.084h2.1Zm-4.2,0h-2.1v-1.084h2.1Zm-4.2,0h-2.1v-1.084h2.1Zm-4.2,0h-2.1v-1.084h2.1Zm-4.2,0h-2.1v-1.084h2.1Zm-4.2,0h-2.1v-1.084h2.1Z" transform="translate(374.41 -199.999)" fill="#e6e6e6"/><rect width="1.301" height="1.084" transform="translate(583.869 312.014)" fill="#f0f0f0"/><path d="M312.065,413.642h-2.1v-1.084h2.1Zm-4.2,0h-2.1v-1.084h2.1Zm-4.2,0h-2.1v-1.084h2.1Zm-4.2,0h-2.1v-1.084h2.1Zm-4.2,0h-2.1v-1.084h2.1Zm-4.2,0h-2.1v-1.084h2.1Zm-4.2,0h-2.1v-1.084h2.1Zm-4.2,0h-2.1v-1.084h2.1Zm-4.2,0h-2.1v-1.084h2.1Zm-4.2,0h-2.1v-1.084h2.1Zm-4.2,0h-2.1v-1.084h2.1Zm-4.2,0h-2.1v-1.084h2.1Zm-4.2,0h-2.1v-1.084h2.1Zm-4.2,0h-2.1v-1.084h2.1Zm-4.2,0h-2.1v-1.084h2.1Zm-4.2,0h-2.1v-1.084h2.1Zm-4.2,0h-2.1v-1.084h2.1Zm-4.2,0h-2.1v-1.084h2.1Zm-4.2,0h-2.1v-1.084h2.1Zm-4.2,0h-2.1v-1.084h2.1Zm-4.2,0h-2.1v-1.084h2.1Zm-4.2,0h-2.1v-1.084h2.1Zm-4.2,0h-2.1v-1.084h2.1Zm-4.2,0h-2.1v-1.084h2.1Z" transform="translate(374.41 -100.545)" fill="#e6e6e6"/><rect width="1.301" height="1.084" transform="translate(583.869 284.468)" fill="#f0f0f0"/><path d="M312.065,286.642h-2.1v-1.084h2.1Zm-4.2,0h-2.1v-1.084h2.1Zm-4.2,0h-2.1v-1.084h2.1Zm-4.2,0h-2.1v-1.084h2.1Zm-4.2,0h-2.1v-1.084h2.1Zm-4.2,0h-2.1v-1.084h2.1Zm-4.2,0h-2.1v-1.084h2.1Zm-4.2,0h-2.1v-1.084h2.1Zm-4.2,0h-2.1v-1.084h2.1Zm-4.2,0h-2.1v-1.084h2.1Zm-4.2,0h-2.1v-1.084h2.1Zm-4.2,0h-2.1v-1.084h2.1Zm-4.2,0h-2.1v-1.084h2.1Zm-4.2,0h-2.1v-1.084h2.1Zm-4.2,0h-2.1v-1.084h2.1Zm-4.2,0h-2.1v-1.084h2.1Zm-4.2,0h-2.1v-1.084h2.1Zm-4.2,0h-2.1v-1.084h2.1Zm-4.2,0h-2.1v-1.084h2.1Zm-4.2,0h-2.1v-1.084h2.1Zm-4.2,0h-2.1v-1.084h2.1Zm-4.2,0h-2.1v-1.084h2.1Zm-4.2,0h-2.1v-1.084h2.1Zm-4.2,0h-2.1v-1.084h2.1Z" transform="translate(374.41 -1.09)" fill="#e6e6e6"/><rect width="10.628" height="39.041" rx="5.314" transform="translate(606.631 339.884)" fill="#E93F3F"/><rect width="10.628" height="66.586" rx="5.314" transform="translate(631.791 312.339)" fill="#E93F3F"/><rect width="10.628" height="94.132" rx="5.314" transform="translate(656.951 284.793)" fill="#E93F3F"/><ellipse cx="2.603" cy="2.603" rx="2.603" ry="2.603" transform="translate(581.375 282.408)" fill="#E93F3F"/><ellipse cx="2.603" cy="2.603" rx="2.603" ry="2.603" transform="translate(581.375 309.953)" fill="#E93F3F"/><ellipse cx="2.603" cy="2.603" rx="2.603" ry="2.603" transform="translate(581.375 337.499)" fill="#E93F3F"/><rect width="105.1" height="2.139" transform="translate(581.375 378.925)" fill="#e6e6e6"/></g></svg>